<svg width="28" height="28" viewBox="0 0 28 28" fill="none" xmlns="http://www.w3.org/2000/svg">
<path d="M19.8333 5.6C19.7045 5.6 19.6 5.70447 19.6 5.83333V8.16667C19.6 8.29553 19.7045 8.4 19.8333 8.4H22.1667C22.2955 8.4 22.4 8.29553 22.4 8.16667V5.83333C22.4 5.70447 22.2955 5.6 22.1667 5.6H19.8333ZM19.6 22.4V21.7C19.6 21.3134 19.9134 21 20.3 21C20.6866 21 21 21.3134 21 21.7V22.4H22.4V21.7C22.4 21.3134 22.7134 21 23.1 21C23.4866 21 23.8 21.3134 23.8 21.7V23.1C23.8 23.4866 23.4866 23.8 23.1 23.8H17.5C17.1134 23.8 16.8 23.4866 16.8 23.1V21.7C16.8 21.3134 17.1134 21 17.5 21C17.8866 21 18.2 21.3134 18.2 21.7V22.4H19.6ZM15.4 12.6H16.1C16.4866 12.6 16.8 12.9134 16.8 13.3C16.8 13.6866 16.4866 14 16.1 14H13.3C12.9134 14 12.6 13.6866 12.6 13.3C12.6 12.9134 12.9134 12.6 13.3 12.6H14V11.2H11.9C11.5134 11.2 11.2 10.8866 11.2 10.5C11.2 10.1134 11.5134 9.8 11.9 9.8H16.1C16.4866 9.8 16.8 10.1134 16.8 10.5C16.8 10.8866 16.4866 11.2 16.1 11.2H15.4V12.6ZM22.4 14H21.7C21.3134 14 21 13.6866 21 13.3C21 12.9134 21.3134 12.6 21.7 12.6H22.4V11.9C22.4 11.5134 22.7134 11.2 23.1 11.2C23.4866 11.2 23.8 11.5134 23.8 11.9V14.7C23.8 15.0866 23.4866 15.4 23.1 15.4C22.7134 15.4 22.4 15.0866 22.4 14.7V14ZM15.4 16.8H14.7C14.3134 16.8 14 16.4866 14 16.1C14 15.7134 14.3134 15.4 14.7 15.4H16.1C16.4866 15.4 16.8 15.7134 16.8 16.1V18.9C16.8 19.2866 16.4866 19.6 16.1 19.6H11.9C11.5134 19.6 11.2 19.2866 11.2 18.9C11.2 18.5134 11.5134 18.2 11.9 18.2H15.4V16.8ZM19.8333 4.2H22.1667C23.0687 4.2 23.8 4.93127 23.8 5.83333V8.16667C23.8 9.06873 23.0687 9.8 22.1667 9.8H19.8333C18.9313 9.8 18.2 9.06873 18.2 8.16667V5.83333C18.2 4.93127 18.9313 4.2 19.8333 4.2ZM5.83333 4.2H8.16667C9.06873 4.2 9.8 4.93127 9.8 5.83333V8.16667C9.8 9.06873 9.06873 9.8 8.16667 9.8H5.83333C4.93127 9.8 4.2 9.06873 4.2 8.16667V5.83333C4.2 4.93127 4.93127 4.2 5.83333 4.2ZM5.83333 5.6C5.70447 5.6 5.6 5.70447 5.6 5.83333V8.16667C5.6 8.29553 5.70447 8.4 5.83333 8.4H8.16667C8.29553 8.4 8.4 8.29553 8.4 8.16667V5.83333C8.4 5.70447 8.29553 5.6 8.16667 5.6H5.83333ZM5.83333 18.2H8.16667C9.06873 18.2 9.8 18.9313 9.8 19.8333V22.1667C9.8 23.0687 9.06873 23.8 8.16667 23.8H5.83333C4.93127 23.8 4.2 23.0687 4.2 22.1667V19.8333C4.2 18.9313 4.93127 18.2 5.83333 18.2ZM5.83333 19.6C5.70447 19.6 5.6 19.7045 5.6 19.8333V22.1667C5.6 22.2955 5.70447 22.4 5.83333 22.4H8.16667C8.29553 22.4 8.4 22.2955 8.4 22.1667V19.8333C8.4 19.7045 8.29553 19.6 8.16667 19.6H5.83333ZM15.4 5.6H11.9C11.5134 5.6 11.2 5.2866 11.2 4.9C11.2 4.5134 11.5134 4.2 11.9 4.2H16.1C16.4866 4.2 16.8 4.5134 16.8 4.9V7.7C16.8 8.0866 16.4866 8.4 16.1 8.4C15.7134 8.4 15.4 8.0866 15.4 7.7V5.6ZM11.9 8.4C11.5134 8.4 11.2 8.0866 11.2 7.7C11.2 7.3134 11.5134 7 11.9 7H13.3C13.6866 7 14 7.3134 14 7.7C14 8.0866 13.6866 8.4 13.3 8.4H11.9ZM4.9 16.8C4.5134 16.8 4.2 16.4866 4.2 16.1C4.2 15.7134 4.5134 15.4 4.9 15.4H7.7C8.0866 15.4 8.4 15.7134 8.4 16.1C8.4 16.4866 8.0866 16.8 7.7 16.8H4.9ZM10.5 16.8C10.1134 16.8 9.8 16.4866 9.8 16.1C9.8 15.7134 10.1134 15.4 10.5 15.4H11.9C12.2866 15.4 12.6 15.7134 12.6 16.1C12.6 16.4866 12.2866 16.8 11.9 16.8H10.5ZM12.6 22.4V23.1C12.6 23.4866 12.2866 23.8 11.9 23.8C11.5134 23.8 11.2 23.4866 11.2 23.1V21.7C11.2 21.3134 11.5134 21 11.9 21H14.7C15.0866 21 15.4 21.3134 15.4 21.7C15.4 22.0866 15.0866 22.4 14.7 22.4H12.6ZM9.8 12.6H10.5C10.8866 12.6 11.2 12.9134 11.2 13.3C11.2 13.6866 10.8866 14 10.5 14H9.1C8.7134 14 8.4 13.6866 8.4 13.3V12.6H7.7C7.3134 12.6 7 12.2866 7 11.9C7 11.5134 7.3134 11.2 7.7 11.2H9.1C9.4866 11.2 9.8 11.5134 9.8 11.9V12.6ZM4.2 11.9C4.2 11.5134 4.5134 11.2 4.9 11.2C5.2866 11.2 5.6 11.5134 5.6 11.9V13.3C5.6 13.6866 5.2866 14 4.9 14C4.5134 14 4.2 13.6866 4.2 13.3V11.9ZM18.2 11.9C18.2 11.5134 18.5134 11.2 18.9 11.2C19.2866 11.2 19.6 11.5134 19.6 11.9V14.7C19.6 15.0866 19.2866 15.4 18.9 15.4C18.5134 15.4 18.2 15.0866 18.2 14.7V11.9ZM21 18.2V17.5C21 17.1134 21.3134 16.8 21.7 16.8H23.1C23.4866 16.8 23.8 17.1134 23.8 17.5C23.8 17.8866 23.4866 18.2 23.1 18.2H22.4V18.9C22.4 19.2866 22.0866 19.6 21.7 19.6H18.9C18.5134 19.6 18.2 19.2866 18.2 18.9V17.5C18.2 17.1134 18.5134 16.8 18.9 16.8C19.2866 16.8 19.6 17.1134 19.6 17.5V18.2H21ZM1.4 6.3C1.4 6.6866 1.0866 7 0.7 7C0.313401 7 0 6.6866 0 6.3V3.5C0 1.567 1.567 0 3.5 0H6.3C6.6866 0 7 0.313401 7 0.7C7 1.0866 6.6866 1.4 6.3 1.4H3.5C2.3402 1.4 1.4 2.3402 1.4 3.5V6.3ZM21.7 1.4C21.3134 1.4 21 1.0866 21 0.7C21 0.313401 21.3134 0 21.7 0H24.5C26.433 0 28 1.567 28 3.5V6.3C28 6.6866 27.6866 7 27.3 7C26.9134 7 26.6 6.6866 26.6 6.3V3.5C26.6 2.3402 25.6598 1.4 24.5 1.4H21.7ZM6.3 26.6C6.6866 26.6 7 26.9134 7 27.3C7 27.6866 6.6866 28 6.3 28H3.5C1.567 28 0 26.433 0 24.5V21.7C0 21.3134 0.313401 21 0.7 21C1.0866 21 1.4 21.3134 1.4 21.7V24.5C1.4 25.6598 2.3402 26.6 3.5 26.6H6.3ZM26.6 21.7C26.6 21.3134 26.9134 21 27.3 21C27.6866 21 28 21.3134 28 21.7V24.5C28 26.433 26.433 28 24.5 28H21.7C21.3134 28 21 27.6866 21 27.3C21 26.9134 21.3134 26.6 21.7 26.6H24.5C25.6598 26.6 26.6 25.6598 26.6 24.5V21.7Z" fill="#6D6D6D"/>
</svg>
